:SAMPLES-PER-SECOND 30
:FULLY-SPECIFIED
:DEGREES
909
root  1.53545 41.0443 -2.14758 -179.362 -86.1222 179.396
RightUpLeg  3.18439 -7.96583 -5.91212
RightLeg  1.80905 -4.53003 3.07935
RightFoot  -2.15735 -0.0734719 0.715817
RightToes  -4.65663e-010 0 -3.6325e-017
Spine  0.892323 0.77485 5.43126
Spine1  4.99903 1.62648 -3.85378
HEad  -60.7887 2.47311 -4.42502
LeftShoulder1  11.3275 -14.7318 -54.1227
LeftArm  4.59767 16.9867 -16.864
LeftForeArm  19.1478 -23.8034 -4.0866
LeftHand  -0.244104 0.0205437 5.32207
RightShoulder  8.18056 12.0814 45.8737
RightArm  2.4195 -12.9757 27.1977
RightForeArm  2.67548 15.6389 6.65479
RightHand  -0.551882 0.00391771 -11.921
LeftUpLeg  5.80476 6.35321 5.59434
LeftLeg  -1.34094 12.4742 -4.32756
LeftFoot  -2.23019 0.108182 -1.16841
LeftToes  4.18335e-011 1.59304e-011 3.38507e-012
910
root  1.55166 41.047 -2.15759 -179.752 -86.1455 179.711
RightUpLeg  3.24522 -7.96874 -5.88777
RightLeg  1.80326 -4.52612 3.10058
RightFoot  -2.10758 -0.0692271 0.66306
RightToes  -4.65663e-010 0 -3.6325e-017
Spine  0.695516 0.762331 5.52631
Spine1  5.41897 1.64885 -3.97973
HEad  -59.2715 2.42827 -4.53777
LeftShoulder1  11.3212 -14.7575 -54.0214
LeftArm  4.79885 16.9499 -16.8957
LeftForeArm  18.8041 -23.5639 -4.06502
LeftHand  -0.244104 0.0205437 5.32207
RightShoulder  8.21763 12.1062 46.0129
RightArm  2.26421 -12.73 27.0595
RightForeArm  3.02283 15.5067 6.67772
RightHand  -0.593819 0.378473 -12.0211
LeftUpLeg  5.85073 6.38672 5.65135
LeftLeg  -1.32871 12.4116 -4.33545
LeftFoot  -2.18805 0.104165 -1.10531
LeftToes  4.18335e-011 1.59304e-011 3.38507e-012
911
root  1.57792 41.0486 -2.16703 -179.931 -86.2097 179.761
RightUpLeg  3.33867 -7.97978 -5.88183
RightLeg  1.83316 -4.56822 3.10664
RightFoot  -2.0698 -0.0639727 0.595801
RightToes  -4.65663e-010 0 -3.6325e-017
Spine  0.279311 0.701117 5.47003
Spine1  6.236 1.5624 -3.82358
HEad  -56.7237 2.68371 -4.96979
LeftShoulder1  11.2325 -14.6524 -53.9128
LeftArm  5.135 16.5039 -17.0823
LeftForeArm  18.2067 -23.1481 -4.05214
LeftHand  -0.244104 0.0205437 5.32207
RightShoulder  8.20594 12.1319 45.8672
RightArm  2.173 -12.1514 27.2362
RightForeArm  3.13798 15.3895 6.71832
RightHand  -0.587301 0.340184 -11.9654
LeftUpLeg  5.91226 6.4043 5.68817
LeftLeg  -1.2712 12.3185 -4.31854
LeftFoot  -2.16053 0.102612 -1.08148
LeftToes  4.18335e-011 1.59304e-011 3.38507e-012
912
root  1.61569 41.0493 -2.17486 -179.967 -86.2996 179.603
RightUpLeg  3.47756 -8.00688 -5.90162
RightLeg  1.88955 -4.63111 3.11069
RightFoot  -2.05574 -0.0591351 0.535799
RightToes  -4.65663e-010 0 -3.6325e-017
Spine  -0.311971 0.581552 5.24888
Spine1  7.44975 1.35956 -3.41613
HEad  -52.957 3.31566 -5.60526
LeftShoulder1  11.0882 -14.4215 -53.9054
LeftArm  5.33107 15.7304 -17.2464
LeftForeArm  17.806 -22.7943 -4.05916
LeftHand  -0.244104 0.0205437 5.32207
RightShoulder  8.13579 12.0777 45.6254
RightArm  2.35657 -11.1662 27.5502
RightForeArm  2.90412 15.4338 6.73748
RightHand  -0.540421 -0.0645174 -11.8179
LeftUpLeg  6.00954 6.40792 5.70781
LeftLeg  -1.19042 12.2121 -4.2782
LeftFoot  -2.14072 0.10373 -1.10023
LeftToes  4.18335e-011 1.59304e-011 3.38507e-012
913
root  1.66716 41.0495 -2.18127 179.89 -86.3779 179.515
RightUpLeg  3.62739 -8.02737 -5.91781
RightLeg  1.96003 -4.6815 3.10593
RightFoot  -2.04569 -0.0561133 0.504384
RightToes  -4.65663e-010 0 -3.6325e-017
Spine  -0.946036 0.467512 5.03614
Spine1  8.7987 1.1622 -3.03252
HEad  -47.8617 4.08579 -6.17601
LeftShoulder1  10.9698 -14.2028 -53.9836
LeftArm  5.19424 14.9759 -17.3064
LeftForeArm  17.8861 -22.7882 -4.05691
LeftHand  -0.244104 0.0205437 5.32207
RightShoulder  8.03898 11.9383 45.4851
RightArm  2.89086 -10.0565 27.8119
RightForeArm  2.4535 15.7978 6.66244
RightHand  -0.506008 -0.356273 -11.6834
LeftUpLeg  6.12317 6.42029 5.73562
LeftLeg  -1.09919 12.1105 -4.23597
LeftFoot  -2.11693 0.104113 -1.10872
LeftToes  4.18335e-011 1.59304e-011 3.38507e-012
914
root  1.73541 41.0497 -2.18852 179.963 -86.4198 179.214
RightUpLeg  3.72233 -8.03635 -5.93174
RightLeg  2.06028 -4.69998 3.07817
RightFoot  -2.02698 -0.0544087 0.493439
RightToes  -4.65663e-010 0 -3.6325e-017
Spine  -1.52556 0.404217 4.94418
Spine1  9.99675 1.06692 -2.87254
HEad  -41.4864 4.84413 -6.50027
LeftShoulder1  10.8748 -14.0611 -53.9483
LeftArm  4.70303 14.4604 -17.4048
LeftForeArm  18.3088 -23.0733 -4.04248
LeftHand  -0.244104 0.0205437 5.32207
RightShoulder  7.9571 11.81 45.396
RightArm  3.57224 -9.18428 28.0984
RightForeArm  1.83499 16.4623 6.47702
RightHand  -0.512057 -0.286223 -11.6662
LeftUpLeg  6.21191 6.44153 5.75738
LeftLeg  -1.0085 12.04 -4.21887
LeftFoot  -2.06842 0.101923 -1.07848
LeftToes  4.18335e-011 1.59304e-011 3.38507e-012
915
root  1.81917 41.0501 -2.19553 -179.336 -86.4192 178.297
RightUpLeg  3.75808 -8.06419 -5.98155
RightLeg  2.18583 -4.66395 3.04571
RightFoot  -2.00171 -0.0515694 0.464738
RightToes  -4.65663e-010 0 -3.6325e-017
Spine  -2.01402 0.361779 4.95066
Spine1  10.9589 1.04665 -2.92236
HEad  -33.952 5.64622 -6.54089
LeftShoulder1  10.729 -13.9164 -53.678
LeftArm  4.01924 14.1145 -17.6641
LeftForeArm  18.7316 -23.4072 -4.04718
LeftHand  -0.244104 0.0205437 5.32207
RightShoulder  7.90386 11.7454 45.2792
RightArm  4.28587 -8.58407 28.4992
RightForeArm  0.93064 17.2887 6.23859
RightHand  -0.528915 -0.16191 -11.7746
LeftUpLeg  6.28501 6.43358 5.72949
LeftLeg  -0.956513 12.0411 -4.21976
LeftFoot  -1.98716 0.0994576 -1.04531
LeftToes  4.18335e-011 1.59304e-011 3.38507e-012
916
root  1.91385 41.0511 -2.19854 -178.61 -86.4037 177.347
RightUpLeg  3.80767 -8.1131 -6.05302
RightLeg  2.267 -4.59305 3.04424
RightFoot  -1.94935 -0.0464443 0.403018
RightToes  -4.65663e-010 0 -3.6325e-017
Spine  -2.36033 0.312966 5.04068
Spine1  11.7271 1.04402 -3.06844
HEad  -25.3953 6.38423 -6.39692
LeftShoulder1  10.5467 -13.7336 -53.339
LeftArm  3.41426 13.813 -17.9742
LeftForeArm  18.9845 -23.7226 -4.08073
LeftHand  -0.244104 0.0205437 5.32207
RightShoulder  7.85833 11.6892 45.1811
RightArm  5.11536 -8.10123 28.8836
RightForeArm  -0.189847 18.2142 5.97961
RightHand  -0.522959 -0.276181 -11.8919
LeftUpLeg  6.3776 6.3861 5.67217
LeftLeg  -0.963451 12.0898 -4.20266
LeftFoot  -1.88964 0.0989447 -1.04394
LeftToes  4.18335e-011 1.59304e-011 3.38507e-012
